<?xml version="1.0" encoding="UTF-8" standalone="no"?>
<!-- Created with Inkscape (http://www.inkscape.org/) -->

<svg
   width="4418.313"
   height="5152.1387"
   viewBox="0 0 4418.3131 5152.1387"
   version="1.1"
   id="SVGRoot"
   sodipodi:docname="Background.svg"
   inkscape:version="1.2.2 (732a01da63, 2022-12-09)"
   inkscape:export-filename="Background.png"
   inkscape:export-xdpi="96"
   inkscape:export-ydpi="96"
   xmlns:inkscape="http://www.inkscape.org/namespaces/inkscape"
   xmlns:sodipodi="http://sodipodi.sourceforge.net/DTD/sodipodi-0.dtd"
   xmlns="http://www.w3.org/2000/svg"
   xmlns:svg="http://www.w3.org/2000/svg">
  <sodipodi:namedview
     id="namedview1895"
     pagecolor="#ffffff"
     bordercolor="#000000"
     borderopacity="0.25"
     inkscape:showpageshadow="2"
     inkscape:pageopacity="0.0"
     inkscape:pagecheckerboard="0"
     inkscape:deskcolor="#d1d1d1"
     inkscape:document-units="px"
     showgrid="false"
     inkscape:zoom="0.52221046"
     inkscape:cx="644.37621"
     inkscape:cy="566.82128"
     inkscape:window-width="1920"
     inkscape:window-height="1009"
     inkscape:window-x="-8"
     inkscape:window-y="-8"
     inkscape:window-maximized="1"
     inkscape:current-layer="layer1" />
  <defs
     id="defs1890" />
  <g
     inkscape:label="Layer 1"
     inkscape:groupmode="layer"
     id="layer1"
     transform="translate(0.99256358,0.99256358)">
    <circle
       style="fill:#173f5f;fill-opacity:1;stroke:#ffffff;stroke-width:0.630758;stroke-opacity:0"
       id="path3167"
       cx="236.91747"
       cy="288.21249"
       r="101.46046" />
    <circle
       style="fill:#173f5f;fill-opacity:1;stroke:#ffffff;stroke-width:1.08174;stroke-opacity:0"
       id="path3167-4"
       cx="1420.39"
       cy="3170.6423"
       r="174.00256" />
    <circle
       style="fill:#173f5f;fill-opacity:1;stroke:#ffffff;stroke-width:0.630758;stroke-opacity:0"
       id="path3167-8"
       cx="1335.1079"
       cy="798.89819"
       r="101.46046" />
    <circle
       style="fill:#20639b;fill-opacity:1;stroke:#ffffff;stroke-width:0.840555;stroke-opacity:0"
       id="path3167-5"
       cx="854.41492"
       cy="320.91336"
       r="135.20718" />
    <circle
       style="fill:#3caea3;fill-opacity:1;stroke:#ffffff;stroke-opacity:0"
       id="path3167-5-3"
       cx="1129.29"
       cy="760.98444"
       r="160.85469" />
    <circle
       style="fill:#3caea3;fill-opacity:1;stroke:#ffffff;stroke-width:0.394739;stroke-opacity:0"
       id="path3167-5-3-87"
       cx="103.4066"
       cy="668.31299"
       r="63.495548" />
    <circle
       style="fill:#f6d55c;fill-opacity:1;stroke:#ffffff;stroke-width:0.882514;stroke-opacity:0"
       id="path3167-5-3-8"
       cx="1695.2891"
       cy="506.42029"
       r="141.95653" />
    <circle
       style="fill:#f6d55c;fill-opacity:1;stroke:#ffffff;stroke-width:0.455271;stroke-opacity:0"
       id="path3167-5-3-8-8"
       cx="1041.2325"
       cy="2527.2234"
       r="73.23243" />
    <circle
       style="fill:#f6d55c;fill-opacity:1;stroke:#ffffff;stroke-width:0.882514;stroke-opacity:0"
       id="path3167-5-3-8-6"
       cx="-53.618202"
       cy="9.5746784"
       r="141.95653" />
    <circle
       style="fill:#f6d55c;fill-opacity:1;stroke:#ffffff;stroke-width:0.580407;stroke-opacity:0"
       id="path3167-5-3-8-1"
       cx="484.75519"
       cy="777.23315"
       r="93.361252" />
    <circle
       style="fill:#f6d55c;fill-opacity:1;stroke:#ffffff;stroke-width:0.8415;stroke-opacity:0"
       id="path3167-5-3-8-1-9"
       cx="811.44019"
       cy="2841.2732"
       r="135.35931" />
    <circle
       style="fill:#ed553b;fill-opacity:1;stroke:#ffffff;stroke-width:0.479705;stroke-opacity:0"
       id="path3167-5-3-8-4"
       cx="1405.5193"
       cy="224.77477"
       r="77.162827" />
    <circle
       style="fill:#ed553b;fill-opacity:1;stroke:#ffffff;stroke-width:0.77342;stroke-opacity:0"
       id="path3167-5-3-8-4-9"
       cx="681.09454"
       cy="431.94666"
       r="124.40823" />
    <circle
       style="fill:#ed553b;fill-opacity:1;stroke:#ffffff;stroke-width:1.15319;stroke-opacity:0"
       id="path3167-5-3-8-4-9-6"
       cx="1822.5269"
       cy="1784.228"
       r="185.49632" />
    <path
       style="fill:#ed553b;fill-opacity:1;stroke:#ffffff;stroke-opacity:0"
       id="path5585"
       d="m 185.00232,670.96103 c -8.43355,-2.70813 -17.28284,-4.34743 -26.17177,-3.83166 -2.17816,0.12639 -4.3355,0.49493 -6.50325,0.74239 -10.62324,1.93079 -20.43734,7.36479 -26.96816,16.13605 -1.39664,1.87576 -2.47451,3.96901 -3.71176,5.95352 -0.9196,2.34584 -2.02155,4.62814 -2.75881,7.03751 -3.05418,9.98108 -3.83741,21.56395 -0.89443,31.66124 0.87881,3.01517 2.33105,5.83271 3.49657,8.74907 1.98557,2.80337 3.72165,5.8013 5.95671,8.4101 9.26298,10.8119 22.18236,17.59393 34.8091,23.58815 7.11783,2.91818 14.1398,6.06705 20.62021,10.24351 2.96938,1.91369 6.31365,4.38474 9.17068,6.44574 3.57858,2.78362 7.3677,5.34701 10.63039,8.51777 2.28304,2.21873 4.12409,4.82975 6.00784,7.37857 2.38283,4.17415 3.06282,8.83261 3.08621,13.5605 0.11237,5.09096 -2.59229,8.4236 -6.37208,11.42945 -0.63793,0.4253 -1.27585,0.85059 -1.91378,1.27589 -11.60028,8.0891 -0.16056,24.49437 11.43972,16.40527 v 0 c 1.15526,-0.82513 2.31051,-1.65026 3.46577,-2.47539 1.17551,-1.03852 2.42823,-1.9957 3.52653,-3.11555 6.39539,-6.52086 9.87637,-14.84614 9.84819,-23.9951 -0.32419,-9.35097 -1.85353,-16.99599 -7.02559,-25.01142 -1.82064,-2.44093 -3.29013,-4.50792 -5.3377,-6.81035 -4.59409,-5.16591 -10.13166,-9.29538 -15.66522,-13.38731 -10.4842,-7.5433 -20.736,-14.02353 -32.93371,-18.54309 -11.48768,-5.40384 -23.05878,-11.46135 -30.9215,-21.77441 -0.75282,-1.57373 -1.69508,-3.07014 -2.25845,-4.72119 -2.7363,-8.01933 -1.31729,-16.88413 1.25403,-24.71496 0.50583,-0.97339 0.90391,-2.01083 1.51748,-2.92015 3.36728,-4.99037 8.54166,-8.31751 14.39007,-9.47508 1.42353,-0.19733 2.83813,-0.47608 4.27059,-0.592 7.04621,-0.57022 14.01909,0.97711 20.68377,3.1282 13.64382,3.72105 18.90617,-15.57423 5.26235,-19.29527 z" />
    <path
       style="fill:#3caea3;fill-opacity:1;stroke:#ffffff;stroke-opacity:0"
       id="path5591"
       d="m 1169.7233,161.07575 c 5.4511,-9.33928 14.5676,-15.40376 23.3283,-21.31822 11.7116,-7.92709 0.501,-24.48977 -11.2106,-16.56268 v 0 c -11.062,7.50471 -22.1873,15.51041 -29.0776,27.28092 -7.4954,11.9925 9.4646,22.59248 16.9599,10.59998 z" />
    <path
       style="fill:#3caea3;fill-opacity:1;stroke:#ffffff;stroke-opacity:0"
       id="path6056"
       d="m 1280.4237,501.10762 c 0.4444,6.73372 0.6536,13.60457 2.0937,20.22572 1.1624,5.34389 1.9242,6.8068 3.8175,11.74921 6.8432,14.10201 18.6091,21.37067 32.1445,28.13377 11.0531,5.04908 22.4876,9.16756 34.0159,12.97701 1.4571,0.44686 2.9021,0.93562 4.3714,1.34057 5.2822,1.45576 3.3963,0.6737 8.0401,2.07042 3.3105,0.99572 6.3962,2.39003 9.5519,3.78241 4.8935,1.51637 8.9474,4.21225 12.9477,7.29502 3.5522,2.72793 3.8463,5.04524 5.823,8.88805 2.1538,4.18705 2.2,4.04991 4.6598,7.76418 7.9189,11.7171 24.4894,0.51804 16.5705,-11.19906 v 0 c -2.4713,-3.5311 -3.6347,-6.71173 -5.7604,-10.42479 -2.4827,-4.33672 -5.1979,-7.84738 -9.1233,-10.89983 -5.2527,-4.01167 -10.7373,-7.60727 -17.0591,-9.72834 -2.5706,-1.1294 -5.4439,-2.43416 -8.0637,-3.38881 -3.849,-1.40262 -7.7983,-2.20739 -11.7328,-3.28343 -1.3295,-0.36361 -2.6364,-0.80531 -3.9546,-1.20796 -10.6424,-3.51086 -21.1972,-7.30292 -31.4211,-11.91323 -8.5762,-4.18497 -17.5528,-8.87823 -22.3863,-17.49752 -1.0119,-2.50473 -2.0809,-4.8589 -2.6757,-7.51302 -1.2588,-5.61665 -1.41,-11.45697 -1.859,-17.17037 0,-14.14213 -20,-14.14213 -20,0 z" />
    <path
       style="fill:#3caea3;fill-opacity:1;stroke:#ffffff;stroke-opacity:0"
       id="path6058"
       d="m 323.02291,1085.9382 c 12.62392,-1.2763 24.67756,-5.5245 36.47748,-9.9659 10.61057,-4.2104 20.58826,-9.7936 30.64078,-15.155 1.91283,-1.0202 3.89271,-1.9209 5.74935,-3.0401 2.23974,-1.3501 4.34919,-2.9054 6.52379,-4.3581 11.27445,-8.0324 19.7396,-19.1522 28.59123,-29.6363 6.09733,-7.7232 13.03527,-14.5417 21.49194,-19.5957 4.08131,-2.4218 8.62569,-3.1512 13.27688,-3.3906 3.51363,-0.1216 7.02961,-0.1103 10.54467,-0.1107 14.14214,0 14.13755,-20.00327 -0.005,-20.00003 v 0 c -3.9153,10e-4 -7.83187,-0.011 -11.74499,0.14704 -7.91305,0.52345 -15.59525,2.12584 -22.48851,6.28101 -10.36862,6.41566 -18.79336,14.16928 -26.35718,23.76678 -7.67583,9.0914 -14.93619,18.8393 -24.54763,25.9945 -1.54504,1.074 -3.0232,2.2512 -4.63512,3.222 -3.97118,2.3916 -8.17571,4.3724 -12.27087,6.5449 -3.43604,1.8229 -10.90355,5.7478 -14.40781,7.3879 -2.44725,1.1454 -4.95534,2.1561 -7.43302,3.2341 -10.01182,3.8018 -20.23922,7.5056 -30.94034,8.7331 -14.10048,1.0846 -12.56655,21.0257 1.53393,19.9411 z" />
    <path
       style="fill:#000000;fill-opacity:0;stroke:#ffffff;stroke-opacity:0"
       id="path6062"
       d="m 333.00653,101.86481 c 5.95951,-0.81164 11.80617,-2.342535 17.84659,-2.524919 4.36374,-0.131759 5.17111,0.145701 9.38721,0.712319 11.11354,4.51784 21.93112,9.74477 32.94288,14.52327 8.48654,4.01271 17.39588,6.70827 26.65196,8.21553 2.37877,0.38736 4.76113,0.80774 7.16652,0.95822 2.8417,0.17777 5.69448,0.0163 8.54172,0.0245 2.94936,-0.43035 5.89872,-0.8607 8.84808,-1.29105 13.96766,-2.21457 10.83578,-21.96784 -3.13188,-19.75326 v 0 c -1.96199,0.34834 -3.92398,0.69669 -5.88597,1.04503 -1.92062,0.0486 -3.84342,0.24966 -5.76185,0.14587 -2.04509,-0.11063 -4.06977,-0.47301 -6.09361,-0.78722 -7.80214,-1.21132 -15.24796,-3.471873 -22.37444,-6.905044 -6.1621,-2.673148 -12.33791,-5.331926 -18.43408,-8.15364 -4.07663,-1.886939 -8.20761,-4.074521 -12.44935,-5.587747 -2.49571,-0.890336 -5.07507,-1.525999 -7.61261,-2.288998 -2.21454,-0.248866 -4.41888,-0.617669 -6.64363,-0.746597 -8.44864,-0.489614 -16.72501,0.981237 -24.98761,2.513038 -14.07195,1.407195 -12.08188,21.307938 1.99007,19.900748 z" />
    <path
       style="fill:#173f5f;fill-opacity:1;stroke:#ffffff;stroke-opacity:0"
       id="path6259"
       d="m 1650.2502,149.74072 c 0.7341,9.8217 3.5041,19.26719 10.6799,26.40088 1.696,1.68604 3.715,3.01252 5.5725,4.51877 9.1052,6.14208 18.9503,10.44283 29.5622,13.13407 6.212,1.79821 12.706,1.45745 19.0411,2.22623 1.5587,0.83585 2.4898,3.12323 3.6537,4.83047 3.2898,4.28395 5.5722,9.09561 7.5155,14.0933 2.3,4.39848 3.4114,9.00028 3.9616,13.88167 0.5516,7.10612 0.4764,14.24845 0.488,21.37195 0.023,14.14212 20.0234,14.10906 20,-0.0331 v 0 c -0.013,-7.89468 0.069,-15.81247 -0.6259,-23.68292 -0.7954,-6.53161 -2.2181,-12.88075 -5.1913,-18.80631 -2.5111,-6.41956 -5.5138,-12.60191 -9.6631,-18.14942 -4.7718,-6.90616 -9.3006,-12.02315 -18.0256,-13.39376 -5.4437,-0.53322 -10.9627,-0.42554 -16.3142,-1.74371 -7.9873,-1.94708 -15.2962,-5.15524 -22.2353,-9.60208 -6.2826,-4.23512 -7.4766,-7.56462 -8.4191,-15.04608 0,-14.14213 -20,-14.14213 -20,0 z" />
    <path
       style="fill:#f6d55c;fill-opacity:1;stroke:#ffffff;stroke-opacity:0"
       id="path6379"
       d="m 1748.5642,814.27 c 1.2461,6.17779 2.0815,12.45622 2.5783,18.73836 0.2331,2.94719 0.8533,5.92254 0.485,8.85591 -0.7993,6.3675 -5.2822,13.00519 -8.1789,18.27753 -11.3432,16.28895 -25.188,26.57539 -45.215,29.47179 -10.7178,1.55004 -22.3633,0.60826 -33.0712,0.21787 -22.8909,-1.37105 -45.6683,-4.08577 -68.5136,-5.99805 -4.7677,-0.39907 -9.5282,-1.18904 -14.3115,-1.08994 -5.754,0.11921 -11.4518,1.16156 -17.1777,1.74234 -15.5951,4.35164 -19.174,4.43828 -33.5396,12.06463 -22.5831,11.98885 -41.4128,29.61251 -60.3447,46.47294 -18.1618,16.51782 -35.4544,33.96428 -53.9379,50.13232 -9.7059,8.49 -12.6991,10.7368 -22.4096,18.5322 -11.0258,8.8562 1.4987,24.449 12.5245,15.5928 v 0 c 10.1296,-8.1406 13.1359,-10.3944 23.2601,-19.2553 18.4548,-16.15198 35.7449,-33.55332 53.8659,-50.06787 20.8962,-18.61808 42.1203,-39.32727 68.8008,-49.42114 4.5546,-1.72309 9.3332,-2.78273 13.9998,-4.1741 4.4804,-0.55882 8.9272,-1.57601 13.4411,-1.67645 4.685,-0.10426 9.3481,0.67469 14.0178,1.06542 23.2244,1.94323 46.3791,4.71381 69.6527,6.06891 13.346,0.4145 25.612,1.47598 38.9057,-0.88438 19.2332,-3.41494 34.8243,-11.98147 47.9426,-26.4062 3.6832,-4.05004 6.5639,-8.76309 9.8458,-13.14464 2.392,-4.77257 5.3521,-9.30046 7.1759,-14.31773 1.6723,-4.60075 2.6984,-9.45923 3.2355,-14.32494 0.3611,-3.27096 -0.3009,-6.57611 -0.5664,-9.8562 -0.5575,-6.88692 -1.4947,-13.764 -2.8537,-20.5384 -2.7735,-13.86751 -22.3852,-9.94519 -19.6117,3.92232 z" />
    <path
       style="fill:#f6d55c;fill-opacity:1;stroke:#ffffff;stroke-opacity:0"
       id="path6503"
       d="m 606.57609,139.6136 c -15.45243,1.90459 -30.92585,4.26211 -46.08144,7.86336 -18.57289,6.01069 -24.41553,18.57304 -32.53285,34.99416 -7.41163,15.06437 -8.48489,31.69159 -9.25067,48.15908 -0.0741,2.79423 -0.16594,5.58805 -0.22222,8.38269 -0.053,2.63272 0.0331,5.26947 -0.1057,7.89906 -0.46471,8.80285 -2.44281,17.34609 -4.73969,25.81754 -2.2065,6.09794 -4.38743,12.49438 -8.91709,17.32889 -1.14902,1.22636 -8.62714,7.82101 -9.38038,8.49135 -9.57543,8.40017 -19.81078,15.94044 -30.12286,23.39125 -2.85338,2.13672 -5.92757,3.94334 -8.95552,5.81384 -12.03079,7.43371 -1.51794,24.44782 10.51285,17.01412 v 0 c 3.43702,-2.12417 6.91015,-4.20161 10.15586,-6.61681 10.8669,-7.85184 21.63766,-15.82093 31.72328,-24.67766 3.67627,-3.28642 8.89303,-7.7587 12.09079,-11.44818 5.99791,-6.92022 9.33075,-15.55029 12.20685,-24.10279 1.95762,-7.33087 3.7372,-14.62763 4.66024,-22.17797 1.01212,-8.27902 0.70657,-8.21052 0.86447,-16.20724 0.0526,-2.66374 0.13869,-5.32671 0.20804,-7.99007 0.62172,-13.70833 1.14415,-27.6574 7.22084,-40.25496 3.4851,-7.13837 2.73367,-5.9324 6.81077,-12.90791 3.15581,-5.39928 6.2066,-9.58783 12.45033,-11.46301 14.00797,-3.4193 28.37466,-5.42304 42.65166,-7.34769 14.1146,-0.88216 12.86703,-20.84321 -1.24756,-19.96105 z" />
    <circle
       style="fill:#173f5f;fill-opacity:1;stroke:#ffffff;stroke-width:0.630758;stroke-opacity:0"
       id="path3167-84"
       cx="400.96896"
       cy="3215.376"
       r="101.46046" />
    <circle
       style="fill:#f6d55c;fill-opacity:1;stroke:#ffffff;stroke-width:0.882514;stroke-opacity:0"
       id="path3167-5-3-8-6-2"
       cx="110.43331"
       cy="2936.738"
       r="141.95653" />
    <circle
       style="fill:#ed553b;fill-opacity:1;stroke:#ffffff;stroke-width:0.479705;stroke-opacity:0"
       id="path3167-5-3-8-4-4"
       cx="1818.5127"
       cy="3025.5525"
       r="77.162827" />
    <path
       style="fill:#3caea3;fill-opacity:1;stroke:#ffffff;stroke-opacity:0"
       id="path5591-8"
       d="m 1119.3019,3057.6002 c 5.4511,-9.3393 14.5676,-15.4038 23.3283,-21.3182 11.7116,-7.9271 0.501,-24.4898 -11.2106,-16.5627 v 0 c -11.062,7.5047 -22.1873,15.5104 -29.0776,27.2809 -7.4954,11.9925 9.4646,22.5925 16.9599,10.6 z" />
    <path
       style="fill:#000000;fill-opacity:0;stroke:#ffffff;stroke-opacity:0"
       id="path6062-1"
       d="m 497.05802,3029.0283 c 5.9595,-0.8117 11.8062,-2.3426 17.8466,-2.525 4.3638,-0.1317 5.1711,0.1457 9.3872,0.7124 11.1136,4.5178 21.9312,9.7447 32.9429,14.5232 8.4865,4.0127 17.3959,6.7083 26.652,8.2156 2.3787,0.3873 4.7611,0.8077 7.1665,0.9582 2.8417,0.1777 5.6945,0.016 8.5417,0.024 2.9494,-0.4304 5.8987,-0.8607 8.8481,-1.2911 13.9677,-2.2145 10.8358,-21.9678 -3.1319,-19.7532 v 0 c -1.962,0.3483 -3.924,0.6967 -5.886,1.045 -1.9206,0.049 -3.8434,0.2497 -5.7618,0.1459 -2.0451,-0.1107 -4.0698,-0.473 -6.0936,-0.7873 -7.8022,-1.2113 -15.248,-3.4718 -22.3745,-6.905 -6.1621,-2.6731 -12.3379,-5.3319 -18.434,-8.1536 -4.0767,-1.887 -8.2077,-4.0746 -12.4494,-5.5878 -2.4957,-0.8903 -5.0751,-1.526 -7.6126,-2.289 -2.2145,-0.2489 -4.4189,-0.6177 -6.6436,-0.7466 -8.4487,-0.4896 -16.725,0.9813 -24.9876,2.5131 -14.072,1.4072 -12.0819,21.3079 1.99,19.9007 z" />
    <path
       style="fill:#173f5f;fill-opacity:1;stroke:#ffffff;stroke-opacity:0"
       id="path6259-2"
       d="m 1814.3017,3076.9042 c 0.7341,9.8217 3.5041,19.2672 10.6799,26.4008 1.696,1.6861 3.715,3.0126 5.5725,4.5188 9.1052,6.1421 18.9503,10.4428 29.5622,13.1341 6.212,1.7982 12.706,1.4574 19.0411,2.2262 1.5587,0.8359 2.4898,3.1232 3.6537,4.8305 3.2898,4.2839 5.5722,9.0956 7.5155,14.0933 2.3,4.3985 3.4114,9.0003 3.9616,13.8817 0.5516,7.1061 0.4764,14.2484 0.488,21.3719 0.023,14.1421 20.0234,14.1091 20,-0.033 v 0 c -0.013,-7.8947 0.069,-15.8125 -0.6259,-23.6829 -0.7954,-6.5316 -2.2181,-12.8808 -5.1913,-18.8063 -2.5111,-6.4196 -5.5138,-12.6019 -9.6631,-18.1494 -4.7718,-6.9062 -9.3006,-12.0232 -18.0256,-13.3938 -5.4437,-0.5332 -10.9627,-0.4255 -16.3142,-1.7437 -7.9873,-1.9471 -15.2962,-5.1553 -22.2353,-9.6021 -6.2826,-4.2351 -7.4766,-7.5646 -8.4191,-15.0461 0,-14.1421 -20,-14.1421 -20,0 z" />
    <path
       style="fill:#ed553b;fill-opacity:1;stroke:#ffffff;stroke-opacity:0"
       id="path6503-9"
       d="m 770.62762,3066.777 c -15.4524,1.9046 -30.9259,4.2622 -46.0815,7.8634 -18.5728,6.0107 -24.4155,18.573 -32.5328,34.9942 -7.4116,15.0643 -8.4849,31.6916 -9.2507,48.159 -0.074,2.7943 -0.1659,5.5881 -0.2222,8.3827 -0.053,2.6328 0.033,5.2695 -0.1057,7.8991 -0.4647,8.8028 -2.4428,17.3461 -4.7397,25.8175 -2.2065,6.098 -4.3874,12.4944 -8.9171,17.3289 -1.149,1.2264 -8.6271,7.821 -9.3804,8.4914 -9.5754,8.4001 -19.8107,15.9404 -30.1228,23.3912 -2.8534,2.1367 -5.9276,3.9434 -8.9555,5.8139 -12.0308,7.4337 -1.518,24.4478 10.5128,17.0141 v 0 c 3.437,-2.1242 6.9102,-4.2016 10.1559,-6.6168 10.8669,-7.8519 21.6376,-15.821 31.7233,-24.6777 3.6762,-3.2864 8.893,-7.7587 12.0908,-11.4482 5.9979,-6.9202 9.3307,-15.5503 12.2068,-24.1028 1.9576,-7.3308 3.7372,-14.6276 4.6602,-22.1779 1.0122,-8.279 0.7066,-8.2105 0.8645,-16.2073 0.053,-2.6637 0.1387,-5.3267 0.208,-7.99 0.6218,-13.7084 1.1442,-27.6574 7.2209,-40.255 3.4851,-7.1384 2.7337,-5.9324 6.8108,-12.9079 3.1558,-5.3993 6.2066,-9.5878 12.4503,-11.463 14.008,-3.4193 28.3747,-5.4231 42.6517,-7.3477 14.1145,-0.8822 12.867,-20.8432 -1.2476,-19.9611 z" />
    <path
       style="fill:#f6d55c;fill-opacity:1;stroke:#ffffff;stroke-opacity:0"
       id="path6507"
       d="m 584.75783,659.61751 c 17.01093,7.96743 35.47137,11.51284 53.92756,14.166 20.09499,2.68035 37.5362,-0.72404 56.60144,-6.57814 11.61791,-3.33341 22.41818,-8.81083 33.58344,-13.31091 8.11666,-3.27136 10.58564,-3.90425 18.86016,-6.56735 17.50816,-4.22524 34.48681,-10.02449 51.14115,-16.82096 7.12034,-3.25724 14.7185,-4.99229 22.48219,-5.66393 4.2414,-0.21081 2.05791,-0.12944 6.55081,-0.23435 14.13791,-0.34571 13.649,-20.33973 -0.48891,-19.99402 v 0 c -5.30198,0.13468 -2.67784,0.0297 -7.87257,0.3105 -9.72709,0.91617 -19.27828,3.03402 -28.23051,7.06528 -16.19222,6.61251 -32.70993,12.18553 -49.73073,16.30605 -9.37395,3.03903 -11.44356,3.53225 -20.65414,7.24351 -10.49141,4.22734 -20.62518,9.40834 -31.53696,12.55502 -15.73139,4.87925 -31.29507,8.21554 -47.8769,5.89031 -16.5409,-2.34689 -33.11944,-5.40433 -48.37486,-12.5262 -12.84049,-5.92638 -21.22165,12.23281 -8.38117,18.15919 z" />
    <path
       style="fill:#f6d55c;fill-opacity:1;stroke:#ffffff;stroke-opacity:0"
       id="path6509"
       d="m 32.700523,1009.597 c 2.488554,0 6.433111,-0.1171 8.802707,0.4251 1.717678,0.393 3.327062,1.1647 4.965913,1.8121 8.193872,3.2365 11.670349,5.6399 18.449525,11.1761 5.122423,4.9206 10.368338,9.9491 14.366491,15.8764 1.939533,2.8754 2.758795,5.1389 4.110018,8.2626 5.783745,12.9054 24.034683,4.7259 18.250933,-8.1794 v 0 c -2.487311,-5.422 -3.082983,-7.2916 -6.608296,-12.4061 -4.945635,-7.1751 -11.33105,-13.2952 -17.665782,-19.2032 -2.690698,-2.1007 -5.244446,-4.3897 -8.072094,-6.3022 -7.764176,-5.25106 -16.970534,-9.12979 -26.172828,-10.97028 -2.961774,-0.59237 -7.2524,-0.49114 -10.426587,-0.49114 -14.142136,0 -14.142136,20.00002 0,20.00002 z" />
    <path
       style="fill:#3caea3;fill-opacity:1;stroke:#ffffff;stroke-opacity:0"
       id="path7249"
       d="m 381.75969,2481.8444 c 2.7805,-15.1801 6.92348,-29.5474 14.15735,-43.1936 8.28112,-15.3031 24.6665,-19.9919 40.45696,-24.1114 9.18588,-1.9248 18.88379,-4.1741 28.14209,-1.1701 3.58729,1.164 8.02087,4.0818 11.14879,5.9486 12.0486,7.7957 21.19939,18.6013 28.58226,30.7619 5.70912,11.7764 7.7311,24.3935 8.97763,37.2742 1.37411,13.6859 -0.74234,27.4646 -4.14827,40.7128 -1.77897,11.728 -9.89778,19.0724 -17.98353,26.8786 -8.9101,8.2397 -18.53852,15.2537 -29.30364,20.833 -14.42463,8.1578 -28.08981,17.5362 -41.00046,27.9063 -15.41308,12.4948 -26.71171,28.3668 -37.19736,44.9696 -10.01931,16.019 -14.15978,34.4432 -16.59495,52.9266 -2.00444,15.0561 -1.74823,30.1316 -0.54759,45.2214 1.15509,14.0949 21.08827,12.4613 19.93318,-1.6336 v 0 c -1.15897,-13.685 -1.34385,-27.3537 0.4482,-41.0147 1.9881,-15.6007 5.2652,-31.2758 13.67318,-44.8234 9.30495,-14.7465 19.12617,-28.9473 32.82488,-40.0652 11.87411,-9.5773 24.47828,-18.1859 37.72774,-25.7634 12.41108,-6.536 23.66496,-14.5821 33.93025,-24.1701 10.71928,-10.3548 20.85233,-21.0568 23.48337,-36.3762 3.85002,-15.5151 6.33401,-31.5518 4.65913,-47.5576 -1.58233,-15.8883 -4.37964,-31.4611 -11.84216,-45.7898 -9.24609,-14.9028 -20.59071,-28.1698 -35.59027,-37.5926 -6.80646,-3.8637 -9.9434,-6.1658 -17.67535,-8.3368 -12.14968,-3.4115 -24.77006,-1.1503 -36.77192,1.5283 -21.28077,5.7169 -42.1337,13.5458 -53.05057,34.1668 -8.02575,15.4844 -13.05091,31.7192 -16.11634,48.8927 -2.52983,13.9141 17.14757,17.4918 19.6774,3.5777 z" />
    <path
       style="fill:#20639b;fill-opacity:1;stroke:#ffffff;stroke-opacity:0"
       id="path7253"
       d="m 1613.3734,2514.4878 c 0,16.2751 0,32.5501 0,48.8252 0,3.9518 -0.2791,7.9136 0,11.8555 0.3615,5.1073 1.2785,10.16 1.9178,15.24 7.4009,30.1134 19.3557,59.12 32.9897,86.9349 1.2539,2.4807 2.5078,4.9613 3.7617,7.4419 6.3808,12.6209 24.2293,3.597 17.8485,-9.0238 v 0 c -1.2201,-2.4129 -2.4403,-4.8258 -3.6604,-7.2387 -12.7364,-25.8469 -23.7573,-52.8497 -31.1102,-80.7216 -0.5824,-4.2109 -1.4446,-8.3925 -1.7471,-12.6327 -0.2813,-3.9418 0,-7.9037 0,-11.8555 0,-16.2751 0,-32.5501 0,-48.8252 0,-14.1421 -20,-14.1421 -20,0 z" />
    <path
       style="fill:#20639b;fill-opacity:1;stroke:#ffffff;stroke-opacity:0"
       id="path7444"
       d="m 1313.9056,2600.1448 c -10.2051,21.4022 -16.763,44.3631 -23.2547,67.1041 -8.3394,29.8199 -15.1794,60.0362 -23.7554,89.7886 -7.6647,21.6851 -16.4087,43.3013 -30.119,61.9066 -1.5768,1.7081 -3.1535,3.4162 -4.7303,5.1243 -9.5085,10.4684 5.296,23.9156 14.8046,13.4472 v 0 c 2.0232,-2.2553 4.0464,-4.5106 6.0697,-6.7659 14.9661,-20.5984 24.9634,-44.1703 33.1941,-68.1778 8.5656,-29.7734 15.4542,-59.9932 23.7694,-89.8375 6.3348,-22.2317 12.7582,-44.6515 22.7482,-65.5671 4.9656,-13.2417 -13.761,-20.2642 -18.7266,-7.0225 z" />
    <path
       style="fill:#f6d55c;fill-opacity:1;stroke:#ffffff;stroke-opacity:0"
       id="path8007"
       d="m 1693.7164,2876.8507 c -18.6484,-1.3877 -37.4206,-4.255 -56.1671,-3.6649 -15.2136,0.4789 -30.9316,3.0629 -45.9723,5.1543 -21.3079,3.7801 -42.9506,8.1375 -62.4422,17.9709 -8.6654,4.3716 -10.9635,6.5585 -18.5922,12.2108 -16.2252,14.4929 -24.2576,34.4017 -30.1109,54.8326 -5.1363,23.9576 -9.2122,48.1253 -13.4804,72.2506 -2.1224,15.7819 -5.0839,31.085 -11.1937,45.8054 -3.8627,8.3562 -9.0079,15.5819 -15.9464,21.5964 -3.7487,3.2847 -7.6069,6.3032 -11.8089,8.9727 -11.8418,7.7313 -0.9081,24.4781 10.9336,16.7468 v 0 c 4.9671,-3.3032 9.7226,-6.7634 14.1605,-10.7695 9.0594,-8.1852 16.1822,-17.6911 21.1514,-28.9232 6.59,-16.0767 10.1473,-32.7241 12.398,-49.9458 4.1495,-23.4748 8.1473,-46.981 13.0376,-70.3138 4.4558,-16.1694 10.5535,-32.3292 22.8533,-44.2478 5.7355,-4.3598 8.1257,-6.5603 14.6554,-9.91 17.7882,-9.1253 37.6709,-12.9433 57.15,-16.4682 12.1778,-1.707 30.1356,-4.5633 42.5246,-4.9739 18.1449,-0.6014 36.3176,2.2096 54.369,3.5222 14.0329,1.7541 16.5136,-18.0915 2.4807,-19.8456 z" />
    <g
       inkscape:label="set 2"
       id="layer1-6"
       transform="translate(163.67475,1337.3117)">
      <circle
         style="fill:#173f5f;fill-opacity:1;stroke:#ffffff;stroke-width:0.630758;stroke-opacity:0"
         id="path3167-9"
         cx="-1376.9005"
         cy="-738.93372"
         r="101.46046"
         transform="rotate(165)" />
      <circle
         style="fill:#173f5f;fill-opacity:1;stroke:#ffffff;stroke-width:0.630758;stroke-opacity:0"
         id="path3167-8-1"
         cx="-278.71011"
         cy="-228.24802"
         r="101.46046"
         transform="rotate(165)" />
      <circle
         style="fill:#20639b;fill-opacity:1;stroke:#ffffff;stroke-width:0.840555;stroke-opacity:0"
         id="path3167-5-0"
         cx="-759.40314"
         cy="-706.23285"
         r="135.20718"
         transform="rotate(165)" />
      <circle
         style="fill:#20639b;fill-opacity:1;stroke:#ffffff;stroke-width:1.5716;stroke-opacity:0"
         id="path3167-5-0-7"
         cx="473.11591"
         cy="-1033.2014"
         r="252.799"
         transform="rotate(165)" />
      <circle
         style="fill:#3caea3;fill-opacity:1;stroke:#ffffff;stroke-opacity:0"
         id="path3167-5-3-0"
         cx="-718.94818"
         cy="-1170.073"
         r="160.85469"
         transform="rotate(165)" />
      <circle
         style="fill:#3caea3;fill-opacity:1;stroke:#ffffff;stroke-width:0.394739;stroke-opacity:0"
         id="path3167-5-3-87-0"
         cx="-1510.4114"
         cy="-358.83322"
         r="63.495548"
         transform="rotate(165)" />
      <circle
         style="fill:#f6d55c;fill-opacity:1;stroke:#ffffff;stroke-width:0.882514;stroke-opacity:0"
         id="path3167-5-3-8-40"
         cx="81.471046"
         cy="-520.72589"
         r="141.95653"
         transform="rotate(165)" />
      <circle
         style="fill:#f6d55c;fill-opacity:1;stroke:#ffffff;stroke-width:0.882514;stroke-opacity:0"
         id="path3167-5-3-8-6-8"
         cx="-1228.0607"
         cy="-1226.0563"
         r="141.95653"
         transform="rotate(165)" />
      <circle
         style="fill:#f6d55c;fill-opacity:1;stroke:#ffffff;stroke-width:0.580407;stroke-opacity:0"
         id="path3167-5-3-8-1-1"
         cx="-1129.0629"
         cy="-249.91306"
         r="93.361252"
         transform="rotate(165)" />
      <circle
         style="fill:#ed553b;fill-opacity:1;stroke:#ffffff;stroke-width:0.479705;stroke-opacity:0"
         id="path3167-5-3-8-4-7"
         cx="-208.29874"
         cy="-802.3714"
         r="77.162827"
         transform="rotate(165)" />
      <circle
         style="fill:#ed553b;fill-opacity:1;stroke:#ffffff;stroke-width:0.77342;stroke-opacity:0"
         id="path3167-5-3-8-4-9-1"
         cx="-684.41516"
         cy="-267.05423"
         r="124.40823"
         transform="rotate(165)" />
      <path
         style="fill:#ed553b;fill-opacity:1;stroke:#ffffff;stroke-opacity:0"
         id="path5585-9"
         d="m 1472.3175,-25.756254 c 8.8471,0.433089 17.8191,-0.273833 26.2716,-3.072653 2.0713,-0.685833 4.0597,-1.600176 6.0896,-2.400259 9.7615,-4.614497 17.8348,-12.403414 21.8729,-22.566101 0.8636,-2.173322 1.3629,-4.474219 2.0444,-6.711333 0.2811,-2.503917 0.7548,-4.993655 0.8434,-7.511745 0.3668,-10.431463 -1.8746,-21.822371 -7.3306,-30.813905 -1.6293,-2.68498 -3.7613,-5.03065 -5.6419,-7.54597 -2.6435,-2.19395 -5.0963,-4.6404 -7.9304,-6.58183 -11.7457,-8.04605 -25.9802,-11.25321 -39.7281,-13.77514 -7.6306,-0.97652 -15.2283,-2.20067 -22.5688,-4.55757 -3.3635,-1.07995 -7.2334,-2.60124 -10.5265,-3.85256 -4.1771,-1.76257 -8.5005,-3.25791 -12.4727,-5.47619 -2.7795,-1.55223 -5.2336,-3.59778 -7.7128,-5.5722 -3.382,-3.4152 -5.2445,-7.73893 -6.4908,-12.29967 -1.4262,-4.88841 0.3238,-8.80751 3.1968,-12.68922 0.5061,-0.57592 1.0122,-1.15182 1.5183,-1.72774 9.1114,-10.81584 -6.1845,-23.7013 -15.2959,-12.88545 v 0 c -0.9023,1.09601 -1.8046,2.19203 -2.707,3.28805 -0.8666,1.30738 -1.8289,2.55617 -2.6,3.92212 -4.4897,7.95392 -5.6974,16.89646 -3.3022,25.72639 2.7333,8.94843 6.1892,15.93713 13.2596,22.34082 2.3904,1.88654 4.3448,3.50277 6.9185,5.19679 5.7746,3.80085 12.1922,6.35638 18.5963,8.87669 12.0793,4.57276 23.659,8.17882 36.6108,9.38738 12.4949,2.24648 25.2395,5.10276 35.5035,13.029393 1.1345,1.325262 2.432,2.526809 3.4035,3.975789 4.7186,7.037872 5.6423,15.967878 5.1854,24.197385 -0.2367,1.071141 -0.3527,2.176262 -0.71,3.213402 -1.9609,5.691843 -6.0979,10.244842 -11.4474,12.876648 -1.324,0.559043 -2.6182,1.19442 -3.9719,1.677138 -6.6585,2.374484 -13.7943,2.684592 -20.7886,2.331745 -14.142,-0.06298 -14.231,19.936828 -0.089,19.999796 z" />
      <path
         style="fill:#3caea3;fill-opacity:1;stroke:#ffffff;stroke-opacity:0"
         id="path5591-3"
         d="m 653.11808,721.61965 c -2.84818,10.4319 -10.08444,18.64926 -17.01585,26.62963 -9.26085,10.68816 5.85449,23.78497 15.11535,13.0968 v 0 c 8.74271,-10.11205 17.41689,-20.7244 21.02598,-33.87718 4.13611,-13.52382 -14.98946,-19.37304 -19.12548,-5.84925 z" />
      <path
         style="fill:#3caea3;fill-opacity:1;stroke:#ffffff;stroke-opacity:0"
         id="path6056-3"
         d="m 458.18298,421.82545 c -2.17207,-6.38925 -4.15245,-12.97184 -7.25716,-18.99465 -2.50589,-4.86095 -3.62036,-6.07685 -6.72834,-10.36082 -10.25989,-11.85035 -23.50615,-15.8261 -38.33076,-18.85553 -11.98327,-2.01629 -24.09409,-3.03496 -36.21553,-3.73087 -1.52311,-0.0545 -3.04537,-0.15262 -4.56942,-0.16349 -5.47899,-0.039 -3.45494,0.22829 -8.302,0.0811 -3.45541,-0.10497 -6.79684,-0.65313 -10.20539,-1.18131 -5.11922,-0.19817 -9.73273,-1.75297 -14.39461,-3.69534 -4.1372,-1.7156 -5.02104,-3.87783 -7.92498,-7.07809 -3.1641,-3.48694 -3.17323,-3.34251 -6.51054,-6.29358 -10.68168,-9.26829 -23.78902,5.83794 -13.10734,15.10622 v 0 c 3.30101,2.77116 5.24797,5.54231 8.26225,8.57868 3.52053,3.54638 7.05184,6.23467 11.63352,8.16714 6.11201,2.51548 12.34034,4.56904 18.9957,4.98163 2.77532,0.4256 5.88841,0.94224 8.66603,1.1863 4.08087,0.35864 8.10389,0.11383 12.18283,0.13488 1.3783,0.007 2.75499,0.0955 4.13249,0.14328 11.18845,0.63677 22.36506,1.56784 33.43382,3.37491 9.36712,1.82269 19.25256,4.03272 26.1522,11.10731 1.62569,2.15748 3.26757,4.15476 4.52904,6.5645 2.6696,5.09946 4.32724,10.70164 6.23967,16.10416 3.66026,13.66024 22.97877,8.48386 19.31852,-5.17639 z"
         sodipodi:insensitive="true" />
      <path
         style="fill:#3caea3;fill-opacity:1;stroke:#ffffff;stroke-opacity:0"
         id="path6058-9"
         d="m 1046.9639,-266.06453 c -11.8634,4.50012 -22.4068,11.72328 -32.6551,19.06739 -9.1593,6.8131 -17.352,14.78856 -25.67437,22.569 -1.58361,1.4805 -3.2629,2.86296 -4.76662,4.42454 -1.81398,1.8838 -3.44901,3.93208 -5.17353,5.89812 -8.81133,10.67678 -14.11004,23.60857 -19.94656,36.02644 -3.89067,9.0381 -8.82743,17.42 -15.68788,24.49052 -3.31543,3.3956 -7.51619,5.2763 -11.94693,6.71136 -3.36243,1.02688 -6.76153,1.92595 -10.15671,2.83611 -13.65949,3.66315 -8.47861,22.98071 5.18121,19.31722 v 0 c 3.78163,-1.01432 7.56785,-2.01641 11.30673,-3.18185 7.50794,-2.55367 14.51365,-6.08976 20.09659,-11.88745 8.35482,-8.88065 14.48571,-18.55055 19.30779,-29.77865 5.06124,-10.76834 9.55127,-22.06317 16.98331,-31.4622 1.21442,-1.43729 2.33752,-2.95699 3.64327,-4.31187 3.2169,-3.33791 6.7655,-6.33947 10.1588,-9.49786 2.8472,-2.65003 9.0444,-8.374 12.0047,-10.86518 2.0675,-1.73975 4.2285,-3.36509 6.3428,-5.04765 8.6866,-6.26356 17.607,-12.48814 27.6257,-16.44346 13.3393,-4.69716 6.6965,-23.56175 -6.6428,-18.86464 z" />
      <path
         style="fill:#000000;fill-opacity:0;stroke:#ffffff;stroke-opacity:0"
         id="path6062-9"
         d="m 1476.6493,562.25479 c -5.5464,2.32642 -10.7976,5.31838 -16.585,7.05792 -4.1809,1.25669 -5.0326,1.19765 -9.2517,1.74154 -11.9041,-1.4875 -23.706,-3.73653 -35.5793,-5.50215 -9.2359,-1.67951 -18.5393,-1.97731 -27.8701,-1.03756 -2.398,0.24151 -4.808,0.45205 -7.1704,0.92926 -2.7908,0.56377 -5.5046,1.45809 -8.257,2.18709 -2.7374,1.17904 -5.4749,2.35808 -8.2124,3.53711 -12.9186,5.75421 -4.7809,24.02381 8.1377,18.2696 v 0 c 1.805,-0.84427 3.6099,-1.68855 5.4149,-2.53282 1.8426,-0.54404 3.6479,-1.23591 5.5278,-1.63218 2.004,-0.42245 4.0535,-0.59644 6.0897,-0.81675 7.8498,-0.84929 15.627,-0.59289 23.3992,0.87883 6.644,0.9872 13.2975,1.95696 19.9163,3.10472 4.4261,0.76754 8.9825,1.8114 13.4713,2.17522 2.6412,0.21406 5.2971,0.16048 7.9457,0.24072 2.2035,-0.33278 4.4282,-0.54707 6.6105,-0.99834 8.2875,-1.71374 15.9011,-5.27656 23.4857,-8.89468 13.2283,-5.00134 6.1553,-23.70891 -7.0729,-18.70758 z" />
      <path
         style="fill:#173f5f;fill-opacity:1;stroke:#ffffff;stroke-opacity:0"
         id="path6259-6"
         d="m 191.89846,856.93796 c -3.25113,-9.29704 -8.37142,-17.70375 -17.14904,-22.73713 -2.07459,-1.18963 -4.36812,-1.94836 -6.55217,-2.92253 -10.38463,-3.57619 -21.00739,-5.1823 -31.95424,-5.03528 -6.46574,-0.12915 -12.65027,1.88077 -18.96848,2.77783 -1.72192,-0.40395 -3.21331,-2.3724 -4.77942,-3.72023 -4.28647,-3.28651 -7.73645,-7.34349 -10.90703,-11.66793 -3.36004,-3.65332 -5.624603,-7.81066 -7.419452,-12.38332 -2.372004,-6.72122 -4.147937,-13.63965 -6.00284,-20.51742 -3.682466,-13.65428 -22.992812,-8.44586 -19.309949,5.20836 v 0 c 2.05585,7.62231 4.025919,15.29153 6.734163,22.71395 2.458803,6.10318 5.476304,11.86776 9.881842,16.82189 4.087041,5.5509 8.587537,10.74543 14.031254,15.03 6.396652,5.4358 12.095512,9.2063 20.877952,8.27201 5.39622,-0.89388 10.69929,-2.42632 16.20961,-2.53813 8.21908,-0.18653 16.10927,1.02063 23.96285,3.51998 7.16466,2.46475 9.17971,5.37177 12.02644,12.35437 3.66026,13.66025 22.97877,8.48387 19.31852,-5.17638 z" />
      <path
         style="fill:#f6d55c;fill-opacity:1;stroke:#ffffff;stroke-opacity:0"
         id="path6379-2"
         d="m -75.058409,240.4975 c -2.80257,-5.64477 -5.23448,-11.49305 -7.34029,-17.43255 -0.98794,-2.78644 -2.35709,-5.49989 -2.76055,-8.42863 -0.87597,-6.3574 1.73622,-13.92918 3.16964,-19.77159 6.7408,-18.66975 17.45152,-32.18899 36.04647,-40.17007 9.95142,-4.27119 21.44386,-6.37558 31.88794,-8.7699 22.4657659,-4.60027 45.169666,-7.87327 67.731466,-11.93895 4.708531,-0.8485 9.51128,-1.31756 14.105944,-2.65129 5.527084,-1.60439 10.760956,-4.08592 16.141434,-6.12889 13.937422,-8.23967 17.371945,-9.24964 29.274205,-20.33422 18.71066,-17.425278 32.33742,-39.321908 46.26043,-60.507768 13.26782,-20.65561 25.45571,-41.9832502 39.12481,-62.38426 7.1778,-10.712782 9.4875,-13.657722 16.84952,-23.700762 8.35795,-11.40812 -7.7755,-23.228029 -16.13345,-11.819909 v 0 c -7.6775,10.484949 -9.99804,13.44004 -17.48389,24.619348 -13.64553,20.3780728 -25.84269,41.661483 -39.07195,62.303373 -15.36546,23.39202 -30.50644,48.88876 -53.665334,65.54411 -3.953438,2.843188 -8.294956,5.103518 -12.442432,7.655288 -4.183101,1.69939 -8.215112,3.83283 -12.549209,5.09813 -4.498378,1.31328 -9.204193,1.76777 -13.815906,2.59896 -22.935992,4.1339 -46.0187941,7.4506 -68.850088,12.16533 -12.99853,3.05382 -25.12131,5.20319 -37.35113,10.92378 -17.69399,8.2765 -30.53666,20.5864 -39.47457,37.91489 -2.50947,4.86532 -4.07218,10.16336 -6.108231,15.24503 -1.07526,5.22904 -2.76259,10.36878 -3.22568,15.68712 -0.42456,4.87681 -0.15823,9.83531 0.58231,14.67424 0.49779,3.25297 1.99267,6.27416 3.09807,9.37376 2.320971,6.50797 5.006161,12.90815 8.072201,19.09998 6.26817,12.67715 24.19644,3.8126 17.92827,-8.86455 z" />
      <path
         style="fill:#f6d55c;fill-opacity:1;stroke:#ffffff;stroke-opacity:0"
         id="path6503-2"
         d="m 1202.6313,596.59727 c 14.433,-5.83908 28.769,-12.12108 42.4761,-19.52218 16.3843,-10.6129 18.7765,-24.25938 22.3671,-42.22188 3.2602,-16.46934 -0.01,-32.80778 -3.529,-48.91235 -0.6516,-2.7182 -1.286,-5.44059 -1.955,-8.15457 -0.6302,-2.55673 -1.3958,-5.08135 -1.9423,-7.65726 -1.8294,-8.62318 -2.1299,-17.38729 -2.1039,-26.16456 0.5531,-6.46124 1.0042,-13.20419 4.1282,-19.04633 0.7925,-1.48196 6.309,-9.78738 6.8631,-10.62984 7.075,-10.59224 15.01,-20.52469 23.0423,-30.39058 2.2031,-2.80242 4.705,-5.34314 7.1457,-7.9336 9.6968,-10.29421 -4.8614,-24.00765 -14.5583,-13.71345 v 0 c -2.7701,2.94136 -5.5872,5.84692 -8.0972,9.01988 -8.4644,10.39686 -16.8056,20.88208 -24.2553,32.04738 -2.7004,4.12592 -6.5819,9.79601 -8.7158,14.18742 -4.0024,8.23679 -4.9881,17.4354 -5.5526,26.44087 0.01,7.58775 0.176,15.09646 1.2386,22.62843 1.1651,8.25888 1.4425,8.11363 3.3597,15.87874 0.6386,2.58659 1.2447,5.1811 1.867,7.77166 2.9475,13.40214 6.0531,27.01112 3.444,40.75219 -1.5188,7.79715 -1.1051,6.43779 -3.2379,14.23084 -1.6508,6.03209 -3.5136,10.86752 -9.0592,14.2948 -12.6457,6.92832 -26.0043,12.58216 -39.2967,18.13639 -13.4053,4.50523 -7.0339,23.46323 6.3714,18.958 z" />
      <path
         style="fill:#f6d55c;fill-opacity:1;stroke:#ffffff;stroke-opacity:0"
         id="path6507-1"
         d="m 1089.1192,88.665082 c -18.4934,-3.29319 -37.2424,-1.93988 -55.7564,0.27418 -20.104,2.61194 -36.06981,10.41445 -52.97027,21.003518 -10.35929,6.22677 -19.37388,14.31286 -28.99399,21.54939 -6.9934,5.26064 -9.21445,6.51098 -16.51776,11.22494 -15.81801,8.61271 -30.71717,18.60876 -45.04497,29.4841 -6.03469,4.98913 -12.92488,8.63161 -20.2502,11.28976 -4.04232,1.30138 -1.95429,0.65765 -6.26694,1.92184 -13.5667,3.99309 -7.91961,23.17929 5.64708,19.1862 v 0 c 5.08646,-1.50235 2.57891,-0.72177 7.52396,-2.33749 9.15852,-3.40251 17.83612,-7.92023 25.43995,-14.13113 13.92904,-10.57805 28.44152,-20.23627 43.81588,-28.6217 8.26798,-5.36163 10.13941,-6.3737 18.07561,-12.34238 9.0398,-6.79867 17.48733,-14.42594 27.21288,-20.28958 13.93257,-8.78458 28.10237,-16.03536 44.72097,-18.08106 16.5847,-2.01417 33.3897,-3.35176 49.9686,-0.42095 13.9368,2.40108 17.3324,-17.308558 3.3956,-19.709638 z" />
      <path
         style="fill:#f6d55c;fill-opacity:1;stroke:#ffffff;stroke-opacity:0"
         id="path6509-8"
         d="m 1531.7843,-392.27209 c -2.4038,0.64408 -6.1836,1.77812 -8.6128,1.86769 -1.7609,0.065 -3.5152,-0.2639 -5.2657,-0.46508 -8.7524,-1.00549 -12.7324,-2.42722 -20.7135,-6.02019 -6.2214,-3.42716 -12.5901,-6.92657 -17.9861,-11.61711 -2.6176,-2.27543 -3.9948,-4.24977 -6.1085,-6.91731 -8.9268,-10.96871 -24.4388,1.65577 -15.512,12.62439 v 0 c 3.8058,4.59348 4.8651,6.24521 9.594,10.27302 6.6342,5.65059 14.386,9.90948 22.034,13.97662 3.1427,1.33272 6.2019,2.88276 9.4282,3.99825 8.8587,3.06262 18.7552,4.4264 28.1203,3.82245 3.0142,-0.19438 7.1324,-1.40266 10.1984,-2.2242 13.6603,-3.66025 8.4839,-22.97879 -5.1763,-19.31853 z" />
      <path
         style="fill:#ed553b;fill-opacity:1;stroke:#ffffff;stroke-opacity:0"
         id="path6759"
         d="m 310.61623,-192.3847 c 38.06315,10.1084 77.30088,15.8367 116.62182,17.4294 32.70759,1.8126 64.42311,-4.8236 95.70564,-13.4575 23.24181,-7.428 44.32157,-19.9464 66.53391,-29.8459 22.38409,-9.4436 46.38874,-12.0043 70.37364,-13.5998 15.0084,-1.0326 27.22411,-2.0151 41.07107,4.4333 12.95109,5.6806 20.98467,-12.635 8.03358,-18.3156 v 0 c -2.81125,-1.1847 -5.53132,-2.6147 -8.43376,-3.5542 -13.66645,-4.4238 -27.9129,-3.2503 -42.00747,-2.5188 -26.33768,1.7756 -52.6591,4.8261 -77.19132,15.2929 -21.28806,9.522 -41.54185,21.4052 -63.70339,28.8297 -29.29646,8.0949 -58.94725,14.4932 -89.59948,12.7512 -37.44609,-1.4113 -74.79079,-7.0239 -111.07968,-16.4184 -13.41641,-4.4721 -19.74097,14.5016 -6.32456,18.9737 z" />
      <path
         style="fill:#ed553b;fill-opacity:1;stroke:#ffffff;stroke-opacity:0"
         id="path6986"
         d="m 618.6161,919.6584 c 0.22647,15.342 0.2367,30.8741 2.71642,46.0665 2.35961,14.4565 4.46919,20.2253 8.55448,34.6733 11.13721,32.4781 21.65553,66.3364 40.69594,95.3069 5.08537,7.7376 10.99046,14.9041 16.48569,22.3562 26.72136,31.0476 12.43723,15.8609 43.00801,45.4132 10.18077,9.8159 24.06255,-4.5819 13.88178,-14.3978 v 0 c -28.97124,-27.8557 -15.40709,-13.5049 -40.82432,-42.9276 -5.0553,-6.777 -10.49194,-13.2856 -15.16591,-20.331 -18.27753,-27.5509 -28.13221,-59.9643 -38.84299,-90.8872 -3.62049,-12.6706 -5.81196,-18.8428 -7.92432,-31.497 -2.40862,-14.4287 -2.3567,-29.1997 -2.58478,-43.7755 0,-14.1422 -20,-14.1422 -20,0 z" />
    </g>
  </g>
</svg>
