<?xml version="1.0" encoding="UTF-8" standalone="no"?>
<!-- Created with Inkscape (http://www.inkscape.org/) -->

<svg
   width="1920px"
   height="1080px"
   viewBox="0 0 1920 1080"
   version="1.1"
   id="SVGRoot"
   sodipodi:docname="Background.svg"
   inkscape:version="1.2.2 (732a01da63, 2022-12-09)"
   inkscape:export-filename="Background.png"
   inkscape:export-xdpi="96"
   inkscape:export-ydpi="96"
   xmlns:inkscape="http://www.inkscape.org/namespaces/inkscape"
   xmlns:sodipodi="http://sodipodi.sourceforge.net/DTD/sodipodi-0.dtd"
   xmlns="http://www.w3.org/2000/svg"
   xmlns:svg="http://www.w3.org/2000/svg">
  <sodipodi:namedview
     id="namedview1895"
     pagecolor="#ffffff"
     bordercolor="#000000"
     borderopacity="0.25"
     inkscape:showpageshadow="2"
     inkscape:pageopacity="0.0"
     inkscape:pagecheckerboard="0"
     inkscape:deskcolor="#d1d1d1"
     inkscape:document-units="px"
     showgrid="false"
     inkscape:zoom="0.26110523"
     inkscape:cx="2091.1109"
     inkscape:cy="358.09317"
     inkscape:window-width="958"
     inkscape:window-height="1000"
     inkscape:window-x="-7"
     inkscape:window-y="0"
     inkscape:window-maximized="0"
     inkscape:current-layer="layer1" />
  <defs
     id="defs1890" />
  <g
     inkscape:label="Layer 1"
     inkscape:groupmode="layer"
     id="layer1">
    <circle
       style="fill:#173f5f;fill-opacity:1;stroke:#ffffff;stroke-width:0.630758;stroke-opacity:0"
       id="path3167"
       cx="236.91747"
       cy="288.21249"
       r="101.46046" />
    <circle
       style="fill:#173f5f;fill-opacity:1;stroke:#ffffff;stroke-width:0.630758;stroke-opacity:0"
       id="path3167-8"
       cx="1335.1079"
       cy="798.89819"
       r="101.46046" />
    <circle
       style="fill:#20639b;fill-opacity:1;stroke:#ffffff;stroke-width:0.840555;stroke-opacity:0"
       id="path3167-5"
       cx="854.41492"
       cy="320.91336"
       r="135.20718" />
    <circle
       style="fill:#20639b;fill-opacity:1;stroke:#ffffff;stroke-width:0.512998;stroke-opacity:0"
       id="path3167-5-0"
       cx="1377.2831"
       cy="-17.60284"
       r="82.518227" />
    <circle
       style="fill:#3caea3;fill-opacity:1;stroke:#ffffff;stroke-opacity:0"
       id="path3167-5-3"
       cx="1129.29"
       cy="760.98444"
       r="160.85469" />
    <circle
       style="fill:#3caea3;fill-opacity:1;stroke:#ffffff;stroke-width:0.394739;stroke-opacity:0"
       id="path3167-5-3-87"
       cx="103.4066"
       cy="668.31299"
       r="63.495548" />
    <circle
       style="fill:#f6d55c;fill-opacity:1;stroke:#ffffff;stroke-width:0.882514;stroke-opacity:0"
       id="path3167-5-3-8"
       cx="1695.2891"
       cy="506.42029"
       r="141.95653" />
    <circle
       style="fill:#f6d55c;fill-opacity:1;stroke:#ffffff;stroke-width:0.882514;stroke-opacity:0"
       id="path3167-5-3-8-6"
       cx="-53.618202"
       cy="9.5746784"
       r="141.95653" />
    <circle
       style="fill:#f6d55c;fill-opacity:1;stroke:#ffffff;stroke-width:0.882514;stroke-opacity:0"
       id="path3167-5-3-8-6-5"
       cx="-53.618202"
       cy="-9.5746784"
       r="141.95653"
       transform="scale(1,-1)" />
    <circle
       style="fill:#f6d55c;fill-opacity:1;stroke:#ffffff;stroke-width:0.580407;stroke-opacity:0"
       id="path3167-5-3-8-1"
       cx="484.75519"
       cy="777.23315"
       r="93.361252" />
    <circle
       style="fill:#ed553b;fill-opacity:1;stroke:#ffffff;stroke-width:0.479705;stroke-opacity:0"
       id="path3167-5-3-8-4"
       cx="1405.5193"
       cy="224.77477"
       r="77.162827" />
    <circle
       style="fill:#ed553b;fill-opacity:1;stroke:#ffffff;stroke-width:0.77342;stroke-opacity:0"
       id="path3167-5-3-8-4-9"
       cx="681.09454"
       cy="431.94666"
       r="124.40823" />
    <path
       style="fill:#ed553b;fill-opacity:1;stroke:#ffffff;stroke-opacity:0"
       id="path5585"
       d="m 185.00232,670.96103 c -8.43355,-2.70813 -17.28284,-4.34743 -26.17177,-3.83166 -2.17816,0.12639 -4.3355,0.49493 -6.50325,0.74239 -10.62324,1.93079 -20.43734,7.36479 -26.96816,16.13605 -1.39664,1.87576 -2.47451,3.96901 -3.71176,5.95352 -0.9196,2.34584 -2.02155,4.62814 -2.75881,7.03751 -3.05418,9.98108 -3.83741,21.56395 -0.89443,31.66124 0.87881,3.01517 2.33105,5.83271 3.49657,8.74907 1.98557,2.80337 3.72165,5.8013 5.95671,8.4101 9.26298,10.8119 22.18236,17.59393 34.8091,23.58815 7.11783,2.91818 14.1398,6.06705 20.62021,10.24351 2.96938,1.91369 6.31365,4.38474 9.17068,6.44574 3.57858,2.78362 7.3677,5.34701 10.63039,8.51777 2.28304,2.21873 4.12409,4.82975 6.00784,7.37857 2.38283,4.17415 3.06282,8.83261 3.08621,13.5605 0.11237,5.09096 -2.59229,8.4236 -6.37208,11.42945 -0.63793,0.4253 -1.27585,0.85059 -1.91378,1.27589 -11.60028,8.0891 -0.16056,24.49437 11.43972,16.40527 v 0 c 1.15526,-0.82513 2.31051,-1.65026 3.46577,-2.47539 1.17551,-1.03852 2.42823,-1.9957 3.52653,-3.11555 6.39539,-6.52086 9.87637,-14.84614 9.84819,-23.9951 -0.32419,-9.35097 -1.85353,-16.99599 -7.02559,-25.01142 -1.82064,-2.44093 -3.29013,-4.50792 -5.3377,-6.81035 -4.59409,-5.16591 -10.13166,-9.29538 -15.66522,-13.38731 -10.4842,-7.5433 -20.736,-14.02353 -32.93371,-18.54309 -11.48768,-5.40384 -23.05878,-11.46135 -30.9215,-21.77441 -0.75282,-1.57373 -1.69508,-3.07014 -2.25845,-4.72119 -2.7363,-8.01933 -1.31729,-16.88413 1.25403,-24.71496 0.50583,-0.97339 0.90391,-2.01083 1.51748,-2.92015 3.36728,-4.99037 8.54166,-8.31751 14.39007,-9.47508 1.42353,-0.19733 2.83813,-0.47608 4.27059,-0.592 7.04621,-0.57022 14.01909,0.97711 20.68377,3.1282 13.64382,3.72105 18.90617,-15.57423 5.26235,-19.29527 z" />
    <path
       style="fill:#3caea3;fill-opacity:1;stroke:#ffffff;stroke-opacity:0"
       id="path5591"
       d="m 1169.7233,161.07575 c 5.4511,-9.33928 14.5676,-15.40376 23.3283,-21.31822 11.7116,-7.92709 0.501,-24.48977 -11.2106,-16.56268 v 0 c -11.062,7.50471 -22.1873,15.51041 -29.0776,27.28092 -7.4954,11.9925 9.4646,22.59248 16.9599,10.59998 z" />
    <path
       style="fill:#3caea3;fill-opacity:1;stroke:#ffffff;stroke-opacity:0"
       id="path6056"
       d="m 1280.4237,501.10762 c 0.4444,6.73372 0.6536,13.60457 2.0937,20.22572 1.1624,5.34389 1.9242,6.8068 3.8175,11.74921 6.8432,14.10201 18.6091,21.37067 32.1445,28.13377 11.0531,5.04908 22.4876,9.16756 34.0159,12.97701 1.4571,0.44686 2.9021,0.93562 4.3714,1.34057 5.2822,1.45576 3.3963,0.6737 8.0401,2.07042 3.3105,0.99572 6.3962,2.39003 9.5519,3.78241 4.8935,1.51637 8.9474,4.21225 12.9477,7.29502 3.5522,2.72793 3.8463,5.04524 5.823,8.88805 2.1538,4.18705 2.2,4.04991 4.6598,7.76418 7.9189,11.7171 24.4894,0.51804 16.5705,-11.19906 v 0 c -2.4713,-3.5311 -3.6347,-6.71173 -5.7604,-10.42479 -2.4827,-4.33672 -5.1979,-7.84738 -9.1233,-10.89983 -5.2527,-4.01167 -10.7373,-7.60727 -17.0591,-9.72834 -2.5706,-1.1294 -5.4439,-2.43416 -8.0637,-3.38881 -3.849,-1.40262 -7.7983,-2.20739 -11.7328,-3.28343 -1.3295,-0.36361 -2.6364,-0.80531 -3.9546,-1.20796 -10.6424,-3.51086 -21.1972,-7.30292 -31.4211,-11.91323 -8.5762,-4.18497 -17.5528,-8.87823 -22.3863,-17.49752 -1.0119,-2.50473 -2.0809,-4.8589 -2.6757,-7.51302 -1.2588,-5.61665 -1.41,-11.45697 -1.859,-17.17037 0,-14.14213 -20,-14.14213 -20,0 z" />
    <path
       style="fill:#3caea3;fill-opacity:1;stroke:#ffffff;stroke-opacity:0"
       id="path6058"
       d="m 533.66595,1013.1706 c 12.62392,-1.2763 24.67756,-5.5245 36.47748,-9.9659 10.61057,-4.21035 20.58826,-9.79364 30.64078,-15.15498 1.91283,-1.02018 3.89271,-1.92091 5.74935,-3.04009 2.23974,-1.35011 4.34919,-2.90542 6.52379,-4.35813 11.27445,-8.03244 19.7396,-19.15218 28.59123,-29.63632 6.09733,-7.72316 13.03527,-14.54172 21.49194,-19.59571 4.08131,-2.4218 8.62569,-3.15118 13.27688,-3.39058 3.51363,-0.12163 7.02961,-0.11031 10.54467,-0.11072 14.14214,-0.003 14.13755,-20.00324 -0.005,-20 v 0 c -3.9153,10e-4 -7.83187,-0.011 -11.74499,0.14704 -7.91305,0.52345 -15.59525,2.12584 -22.48851,6.28101 -10.36862,6.41566 -18.79336,14.16928 -26.35718,23.76674 -7.67583,9.09148 -14.93619,18.83934 -24.54763,25.99455 -1.54504,1.074 -3.0232,2.25124 -4.63512,3.222 -3.97118,2.39159 -8.17571,4.37243 -12.27087,6.54494 -3.43604,1.82283 -10.90355,5.7478 -14.40781,7.3879 -2.44725,1.14538 -4.95534,2.15602 -7.43302,3.23404 -10.01182,3.80186 -20.23922,7.50559 -30.94034,8.73308 -14.10048,1.08465 -12.56655,21.02573 1.53393,19.94113 z" />
    <path
       style="fill:#000000;fill-opacity:0;stroke:#ffffff;stroke-opacity:0"
       id="path6062"
       d="m 333.00653,101.86481 c 5.95951,-0.81164 11.80617,-2.342535 17.84659,-2.524919 4.36374,-0.131759 5.17111,0.145701 9.38721,0.712319 11.11354,4.51784 21.93112,9.74477 32.94288,14.52327 8.48654,4.01271 17.39588,6.70827 26.65196,8.21553 2.37877,0.38736 4.76113,0.80774 7.16652,0.95822 2.8417,0.17777 5.69448,0.0163 8.54172,0.0245 2.94936,-0.43035 5.89872,-0.8607 8.84808,-1.29105 13.96766,-2.21457 10.83578,-21.96784 -3.13188,-19.75326 v 0 c -1.96199,0.34834 -3.92398,0.69669 -5.88597,1.04503 -1.92062,0.0486 -3.84342,0.24966 -5.76185,0.14587 -2.04509,-0.11063 -4.06977,-0.47301 -6.09361,-0.78722 -7.80214,-1.21132 -15.24796,-3.471873 -22.37444,-6.905044 -6.1621,-2.673148 -12.33791,-5.331926 -18.43408,-8.15364 -4.07663,-1.886939 -8.20761,-4.074521 -12.44935,-5.587747 -2.49571,-0.890336 -5.07507,-1.525999 -7.61261,-2.288998 -2.21454,-0.248866 -4.41888,-0.617669 -6.64363,-0.746597 -8.44864,-0.489614 -16.72501,0.981237 -24.98761,2.513038 -14.07195,1.407195 -12.08188,21.307938 1.99007,19.900748 z" />
    <path
       style="fill:#173f5f;fill-opacity:1;stroke:#ffffff;stroke-opacity:0"
       id="path6259"
       d="m 1650.2502,149.74072 c 0.7341,9.8217 3.5041,19.26719 10.6799,26.40088 1.696,1.68604 3.715,3.01252 5.5725,4.51877 9.1052,6.14208 18.9503,10.44283 29.5622,13.13407 6.212,1.79821 12.706,1.45745 19.0411,2.22623 1.5587,0.83585 2.4898,3.12323 3.6537,4.83047 3.2898,4.28395 5.5722,9.09561 7.5155,14.0933 2.3,4.39848 3.4114,9.00028 3.9616,13.88167 0.5516,7.10612 0.4764,14.24845 0.488,21.37195 0.023,14.14212 20.0234,14.10906 20,-0.0331 v 0 c -0.013,-7.89468 0.069,-15.81247 -0.6259,-23.68292 -0.7954,-6.53161 -2.2181,-12.88075 -5.1913,-18.80631 -2.5111,-6.41956 -5.5138,-12.60191 -9.6631,-18.14942 -4.7718,-6.90616 -9.3006,-12.02315 -18.0256,-13.39376 -5.4437,-0.53322 -10.9627,-0.42554 -16.3142,-1.74371 -7.9873,-1.94708 -15.2962,-5.15524 -22.2353,-9.60208 -6.2826,-4.23512 -7.4766,-7.56462 -8.4191,-15.04608 0,-14.14213 -20,-14.14213 -20,0 z" />
    <path
       style="fill:#f6d55c;fill-opacity:1;stroke:#ffffff;stroke-opacity:0"
       id="path6379"
       d="m 1748.5642,814.27 c 1.2461,6.17779 2.0815,12.45622 2.5783,18.73836 0.2331,2.94719 0.8533,5.92254 0.485,8.85591 -0.7993,6.3675 -5.2822,13.00519 -8.1789,18.27753 -11.3432,16.28895 -25.188,26.57539 -45.215,29.47179 -10.7178,1.55004 -22.3633,0.60826 -33.0712,0.21787 -22.8909,-1.37105 -45.6683,-4.08577 -68.5136,-5.99805 -4.7677,-0.39907 -9.5282,-1.18904 -14.3115,-1.08994 -5.754,0.11921 -11.4518,1.16156 -17.1777,1.74234 -15.5951,4.35164 -19.174,4.43828 -33.5396,12.06463 -22.5831,11.98885 -41.4128,29.61251 -60.3447,46.47294 -18.1618,16.51782 -35.4544,33.96428 -53.9379,50.13232 -9.7059,8.49 -12.6991,10.7368 -22.4096,18.5322 -11.0258,8.8562 1.4987,24.449 12.5245,15.5928 v 0 c 10.1296,-8.1406 13.1359,-10.3944 23.2601,-19.2553 18.4548,-16.15198 35.7449,-33.55332 53.8659,-50.06787 20.8962,-18.61808 42.1203,-39.32727 68.8008,-49.42114 4.5546,-1.72309 9.3332,-2.78273 13.9998,-4.1741 4.4804,-0.55882 8.9272,-1.57601 13.4411,-1.67645 4.685,-0.10426 9.3481,0.67469 14.0178,1.06542 23.2244,1.94323 46.3791,4.71381 69.6527,6.06891 13.346,0.4145 25.612,1.47598 38.9057,-0.88438 19.2332,-3.41494 34.8243,-11.98147 47.9426,-26.4062 3.6832,-4.05004 6.5639,-8.76309 9.8458,-13.14464 2.392,-4.77257 5.3521,-9.30046 7.1759,-14.31773 1.6723,-4.60075 2.6984,-9.45923 3.2355,-14.32494 0.3611,-3.27096 -0.3009,-6.57611 -0.5664,-9.8562 -0.5575,-6.88692 -1.4947,-13.764 -2.8537,-20.5384 -2.7735,-13.86751 -22.3852,-9.94519 -19.6117,3.92232 z" />
    <path
       style="fill:#f6d55c;fill-opacity:1;stroke:#ffffff;stroke-opacity:0"
       id="path6503"
       d="m 606.57609,139.6136 c -15.45243,1.90459 -30.92585,4.26211 -46.08144,7.86336 -18.57289,6.01069 -24.41553,18.57304 -32.53285,34.99416 -7.41163,15.06437 -8.48489,31.69159 -9.25067,48.15908 -0.0741,2.79423 -0.16594,5.58805 -0.22222,8.38269 -0.053,2.63272 0.0331,5.26947 -0.1057,7.89906 -0.46471,8.80285 -2.44281,17.34609 -4.73969,25.81754 -2.2065,6.09794 -4.38743,12.49438 -8.91709,17.32889 -1.14902,1.22636 -8.62714,7.82101 -9.38038,8.49135 -9.57543,8.40017 -19.81078,15.94044 -30.12286,23.39125 -2.85338,2.13672 -5.92757,3.94334 -8.95552,5.81384 -12.03079,7.43371 -1.51794,24.44782 10.51285,17.01412 v 0 c 3.43702,-2.12417 6.91015,-4.20161 10.15586,-6.61681 10.8669,-7.85184 21.63766,-15.82093 31.72328,-24.67766 3.67627,-3.28642 8.89303,-7.7587 12.09079,-11.44818 5.99791,-6.92022 9.33075,-15.55029 12.20685,-24.10279 1.95762,-7.33087 3.7372,-14.62763 4.66024,-22.17797 1.01212,-8.27902 0.70657,-8.21052 0.86447,-16.20724 0.0526,-2.66374 0.13869,-5.32671 0.20804,-7.99007 0.62172,-13.70833 1.14415,-27.6574 7.22084,-40.25496 3.4851,-7.13837 2.73367,-5.9324 6.81077,-12.90791 3.15581,-5.39928 6.2066,-9.58783 12.45033,-11.46301 14.00797,-3.4193 28.37466,-5.42304 42.65166,-7.34769 14.1146,-0.88216 12.86703,-20.84321 -1.24756,-19.96105 z" />
    <path
       style="fill:#f6d55c;fill-opacity:1;stroke:#ffffff;stroke-opacity:0"
       id="path6507"
       d="m 584.75783,659.61751 c 17.01093,7.96743 35.47137,11.51284 53.92756,14.166 20.09499,2.68035 37.5362,-0.72404 56.60144,-6.57814 11.61791,-3.33341 22.41818,-8.81083 33.58344,-13.31091 8.11666,-3.27136 10.58564,-3.90425 18.86016,-6.56735 17.50816,-4.22524 34.48681,-10.02449 51.14115,-16.82096 7.12034,-3.25724 14.7185,-4.99229 22.48219,-5.66393 4.2414,-0.21081 2.05791,-0.12944 6.55081,-0.23435 14.13791,-0.34571 13.649,-20.33973 -0.48891,-19.99402 v 0 c -5.30198,0.13468 -2.67784,0.0297 -7.87257,0.3105 -9.72709,0.91617 -19.27828,3.03402 -28.23051,7.06528 -16.19222,6.61251 -32.70993,12.18553 -49.73073,16.30605 -9.37395,3.03903 -11.44356,3.53225 -20.65414,7.24351 -10.49141,4.22734 -20.62518,9.40834 -31.53696,12.55502 -15.73139,4.87925 -31.29507,8.21554 -47.8769,5.89031 -16.5409,-2.34689 -33.11944,-5.40433 -48.37486,-12.5262 -12.84049,-5.92638 -21.22165,12.23281 -8.38117,18.15919 z" />
    <path
       style="fill:#f6d55c;fill-opacity:1;stroke:#ffffff;stroke-opacity:0"
       id="path6509"
       d="m 32.700523,1009.597 c 2.488554,0 6.433111,-0.1171 8.802707,0.4251 1.717678,0.393 3.327062,1.1647 4.965913,1.8121 8.193872,3.2365 11.670349,5.6399 18.449525,11.1761 5.122423,4.9206 10.368338,9.9491 14.366491,15.8764 1.939533,2.8754 2.758795,5.1389 4.110018,8.2626 5.783745,12.9054 24.034683,4.7259 18.250933,-8.1794 v 0 c -2.487311,-5.422 -3.082983,-7.2916 -6.608296,-12.4061 -4.945635,-7.1751 -11.33105,-13.2952 -17.665782,-19.2032 -2.690698,-2.1007 -5.244446,-4.3897 -8.072094,-6.3022 -7.764176,-5.25106 -16.970534,-9.12979 -26.172828,-10.97028 -2.961774,-0.59237 -7.2524,-0.49114 -10.426587,-0.49114 -14.142136,0 -14.142136,20.00002 0,20.00002 z" />
    <path
       style="fill:#ed553b;stroke:#ffffff;stroke-opacity:0;fill-opacity:1"
       id="path2889"
       d="m 1813.5599,408.81059 c -13.3904,26.05507 -15.8643,55.24248 -13.2785,84.03996 0.5454,6.07362 1.5617,12.09571 2.3425,18.14357 4.9596,27.00044 14.3378,52.85323 19.8019,79.74248 2.3132,12.77341 3.5875,25.79314 2.0518,38.75013 -1.0071,8.49629 -2.689,14.38182 -4.6905,22.67814 -0.9495,3.5696 -1.8991,7.1392 -2.8486,10.7088 -3.6316,13.6679 15.6977,18.80378 19.3293,5.13589 v 0 c 0.9904,-3.73126 1.9807,-7.46252 2.971,-11.19377 2.3953,-10.09901 4.0518,-15.74665 5.2055,-26.17552 1.6242,-14.68261 0.2194,-29.43628 -2.4222,-43.90177 -5.4101,-26.4191 -14.3662,-51.87852 -19.5669,-78.33697 -4.1347,-31.20424 -6.0612,-59.75406 8.0647,-88.99096 7.4953,-11.99251 -9.4647,-22.59249 -16.96,-10.59998 z" />
  </g>
</svg>
